<svg xmlns="http://www.w3.org/2000/svg" viewBox="0,0,256,256" width="24px" height="24px">
    <g transform="translate(1.28,1.28) scale(0.99,0.99)">
        <g fill="#000000" fill-rule="nonzero" stroke="none" stroke-width="1" stroke-linecap="butt" stroke-linejoin="miter" stroke-miterlimit="10" stroke-dasharray="" stroke-dashoffset="0" font-family="none" font-size="none" style="mix-blend-mode: normal">
            <g transform="scale(10.66667,10.66667)">
                <path d="M15.13672,14.00922c0,0.29492 0.25897,0.48199 0.65466,0.48199c0.5036,-0.0072 0.89209,-0.33093 0.89209,-0.78418v-0.26617l-0.83453,0.05756c-0.46765,0.02875 -0.71222,0.20142 -0.71222,0.5108z">
                </path>
                <path d="M12.60431,11.02356h-0.89209v1.82019h0.89209c0.61151,0 0.97125,-0.33099 0.97125,-0.90649c0,-0.57556 -0.35254,-0.9137 -0.97125,-0.9137z">
                </path>
                <path d="M22,3h-20c-1.10303,0 -2,0.89697 -2,2v14c0,1.10303 0.89697,2 2,2h20c1.10303,0 2,-0.89697 2,-2v-14c0,-1.10303 -0.89697,-2 -2,-2zM6.6712,8.60632c0.28821,-0.33777 0.77606,-0.59033 1.17841,-0.60632c0.05139,0.46881 -0.13617,0.93896 -0.41571,1.27777c-0.27966,0.33813 -0.73816,0.60077 -1.18701,0.56586c-0.06146,-0.45898 0.16528,-0.93762 0.42432,-1.2373zM8.96057,15.00702c-0.33356,0.487 -0.67975,0.97253 -1.22424,0.98236c-0.53668,0.01007 -0.70868,-0.31714 -1.32111,-0.31714c-0.61194,0 -0.80298,0.30731 -1.31042,0.32721c-0.526,0.01978 -0.92712,-0.52734 -1.26276,-1.01239c-0.68762,-0.99323 -1.21252,-2.80646 -0.50739,-4.03076c0.34991,-0.60791 0.97595,-0.99298 1.65552,-1.00244c0.51611,-0.01013 1.00439,0.34747 1.31976,0.34747c0.31622,0 0.90887,-0.42969 1.53174,-0.36713c0.26086,0.01099 0.99353,0.10522 1.46307,0.79364c-0.03772,0.02313 -0.87396,0.51068 -0.86432,1.52234c0.01105,1.21051 1.06201,1.61401 1.07373,1.61829c-0.00922,0.02838 -0.16803,0.5744 -0.55359,1.13855zM12.76978,13.44086h-1.05756v1.56116h-0.71222v-4.57556h1.79138c0.88489,0 1.5108,0.61151 1.5108,1.5036c0,0.89209 -0.63312,1.5108 -1.53241,1.5108zM17.36688,14.99481h-0.65466v-0.57556h-0.0144c-0.18701,0.37408 -0.61865,0.61151 -1.0863,0.61151c-0.69781,0.0072 -1.17267,-0.40289 -1.17267,-1.0144c0,-0.60431 0.46765,-0.94959 1.31653,-1.00714l0.9281,-0.05041v-0.26617c0,-0.39569 -0.26624,-0.61151 -0.71942,-0.61151c-0.37415,0 -0.64752,0.19427 -0.70508,0.4892h-0.64026c0.02155,-0.61151 0.59711,-1.05756 1.36688,-1.05756c0.84174,0 1.38129,0.44604 1.38129,1.12231v2.35974zM19.71222,15.15308c-0.29498,0.82733 -0.61871,1.09351 -1.32373,1.09351c-0.05035,0.0072 -0.21582,-0.0072 -0.27338,-0.01434v-0.56116c0.05035,0.01434 0.15826,0.01434 0.21582,0.01434c0.32373,0 0.5108,-0.13666 0.62592,-0.5036l0.05035,-0.17981l-1.25183,-3.45325h0.74103l0.88489,2.81293h0.0144l0.88489,-2.81293h0.71942z">
                </path>
            </g>
        </g>
    </g>
</svg>