<svg xmlns="http://www.w3.org/2000/svg" viewBox="0,0,256,256" width="64px" height="64px">
    <g transform="translate(-19.2,-19.2) scale(1.15,1.15)">
        <g fill="#000000" fill-rule="nonzero" stroke="none" stroke-width="1" stroke-linecap="butt" stroke-linejoin="miter" stroke-miterlimit="10" stroke-dasharray="" stroke-dashoffset="0" font-family="none" font-size="none" style="mix-blend-mode: normal">
            <g transform="translate(8.88824,4.4446) scale(3.55556,3.55556)">
                <path d="M39.13086,6.5c-0.76775,-0.00587 -1.53841,0.28033 -2.12891,0.86133c-1.181,1.162 -1.1962,3.06214 -0.0332,4.24414l1.37305,1.39453h-8.8418c-1.933,0 -3.5,1.567 -3.5,3.5c0,1.933 1.567,3.5 3.5,3.5h8.8418l-1.37305,1.39453c-0.575,0.584 -0.86133,1.34547 -0.86133,2.10547c0,0.775 0.29853,1.55072 0.89453,2.13672c1.181,1.162 3.07919,1.14875 4.24219,-0.03125l6.89453,-7c1.149,-1.168 1.149,-3.04294 0,-4.21094l-6.89453,-7c-0.5815,-0.5895 -1.34553,-0.88866 -2.11328,-0.89453zM7,10c-2.209,0 -4,1.791 -4,4c0,2.209 1.791,4 4,4h5.59375l3.7793,23.43359c0.707,4.385 4.44377,7.56641 8.88477,7.56641h26.74219c2.209,0 4,-1.791 4,-4c0,-2.209 -1.791,-4 -4,-4h-26.74219c-0.493,0 -0.90733,-0.3548 -0.98633,-0.8418l-0.50977,-3.1582h26.15625c4.908,0 9.05528,-3.51447 9.86328,-8.35547l2.16406,-12.98633c0.363,-2.18 -1.10711,-4.24052 -3.28711,-4.60351c-2.172,-0.36 -4.23952,1.11006 -4.60352,3.28906l-2.16406,12.98438c-0.162,0.968 -0.99066,1.67188 -1.97266,1.67188h-27.44727l-2.52148,-15.63672c-0.312,-1.938 -1.98622,-3.36328 -3.94922,-3.36328zM27,51c-2.761,0 -5,2.239 -5,5c0,2.761 2.239,5 5,5c2.761,0 5,-2.239 5,-5c0,-2.761 -2.239,-5 -5,-5zM49,51c-2.761,0 -5,2.239 -5,5c0,2.761 2.239,5 5,5c2.761,0 5,-2.239 5,-5c0,-2.761 -2.239,-5 -5,-5z">
                </path>
            </g>
        </g>
    </g>
</svg>